<?xml version="1.0" standalone="no"?>
<!DOCTYPE svg PUBLIC "-//W3C//DTD SVG 20010904//EN"
 "http://www.w3.org/TR/2001/REC-SVG-20010904/DTD/svg10.dtd">
<svg version="1.0" xmlns="http://www.w3.org/2000/svg"
 width="562.000000pt" height="444.000000pt" viewBox="0 0 562.000000 444.000000"
 preserveAspectRatio="xMidYMid meet">

<g transform="translate(0.000000,444.000000) scale(0.100000,-0.100000)"
fill="#000000" stroke="none">
<path d="M1790 2220 l0 -1650 945 0 945 0 0 395 0 395 -470 0 -470 0 0 -85 0
-85 385 0 385 0 0 -225 0 -225 -775 0 -775 0 0 1480 0 1480 70 0 70 0 0 -1410
0 -1410 85 0 85 0 0 1495 0 1495 -240 0 -240 0 0 -1650z"/>
<path d="M2437 3864 c-4 -4 -7 -677 -7 -1496 l0 -1488 465 0 465 0 0 85 0 85
-380 0 -380 0 -2 1408 -3 1407 -75 3 c-42 1 -79 0 -83 -4z"/>
</g>
</svg>
